# xmcd
#
# Track frame offsets: 
#        150
#        27267
#        61487
#        95255
#        116097
#        143340
#        178922
#        203472
#        225192
#        250952
#
# Disc length: 3563 seconds
#
# Revision: 0
# Processed by: cddbd v1.5.2PL0 Copyright (c) Steve Scherf et al.
# Submitted via: ExactAudioCopy v0.90b2
#
DISCID=7a0de90a
DTITLE=John Lee Hooker - The Cream
DYEAR=1900
DGENRE=Blues
TTITLE0=Hey Hey
TTITLE1=Rock Steady
TTITLE2=Tupelo
TTITLE3=You Know It Ain't Right
TTITLE4=She's Gone
TTITLE5=T.B. Sheets
TTITLE6=Sugar Mama
TTITLE7=One Room Country Shack
TTITLE8=Drug Store Women
TTITLE9=I Want You to Roll Me
EXTD=
EXTT0=
EXTT1=
EXTT2=
EXTT3=
EXTT4=
EXTT5=
EXTT6=
EXTT7=
EXTT8=
EXTT9=
PLAYORDER=
